<svg width="14" height="15" viewBox="0 0 14 15" fill="none" xmlns="http://www.w3.org/2000/svg">
<path d="M6.00245 2.75179L1.06162 11.0001C0.959749 11.1765 0.905848 11.3765 0.905278 11.5803C0.904708 11.784 0.957487 11.9843 1.05837 12.1613C1.15925 12.3382 1.30471 12.4857 1.48028 12.589C1.65585 12.6923 1.85542 12.7479 2.05912 12.7501H11.9408C12.1445 12.7479 12.344 12.6923 12.5196 12.589C12.6952 12.4857 12.8407 12.3382 12.9415 12.1613C13.0424 11.9843 13.0952 11.784 13.0946 11.5803C13.0941 11.3765 13.0402 11.1765 12.9383 11.0001L7.99745 2.75179C7.89346 2.58035 7.74704 2.43861 7.57231 2.34024C7.39759 2.24186 7.20046 2.19019 6.99995 2.19019C6.79944 2.19019 6.60231 2.24186 6.42759 2.34024C6.25286 2.43861 6.10644 2.58035 6.00245 2.75179Z" stroke="#E54949" stroke-width="0.875" stroke-linecap="round" stroke-linejoin="round"/>
<path d="M7 5.75V8.08333" stroke="#E54949" stroke-width="0.875" stroke-linecap="round" stroke-linejoin="round"/>
<path d="M7 10.4167H7.00667" stroke="#E54949" stroke-width="0.875" stroke-linecap="round" stroke-linejoin="round"/>
</svg>
