<svg width="16" height="16" viewBox="0 0 16 16" fill="none" xmlns="http://www.w3.org/2000/svg">
<g id="alert-triangle">
<g id="Vector">
<path d="M6.57572 2.40102L6.57477 2.40261L0.928106 11.8293L0.92807 11.8293L0.925406 11.8339C0.779952 12.0858 0.702989 12.3713 0.702174 12.6622C0.70136 12.9531 0.776722 13.2391 0.920763 13.4918C1.0648 13.7445 1.2725 13.9551 1.5232 14.1026C1.77389 14.2501 2.05884 14.3294 2.34969 14.3326L2.34969 14.3326H2.35335H13.6467V14.3327L13.6503 14.3326C13.9412 14.3294 14.2261 14.2501 14.4768 14.1026C14.7275 13.9551 14.9352 13.7445 15.0793 13.4918C15.2233 13.2391 15.2987 12.9531 15.2979 12.6622C15.297 12.3713 15.2201 12.0858 15.0746 11.8339L15.0747 11.8338L15.0719 11.8293L9.42526 2.40261L9.4243 2.40103C9.27582 2.15624 9.06675 1.95385 8.81727 1.81339C8.56779 1.67293 8.28632 1.59914 8.00001 1.59914C7.71371 1.59914 7.43224 1.67293 7.18276 1.81339C6.93328 1.95385 6.72421 2.15624 6.57572 2.40102Z" fill="#E54949"/>
<path d="M6.57572 2.40102L6.57477 2.40261L0.928106 11.8293L0.92807 11.8293L0.925406 11.8339C0.779952 12.0858 0.702989 12.3713 0.702174 12.6622C0.70136 12.9531 0.776722 13.2391 0.920763 13.4918C1.0648 13.7445 1.2725 13.9551 1.5232 14.1026C1.77389 14.2501 2.05884 14.3294 2.34969 14.3326L2.34969 14.3326H2.35335H13.6467V14.3327L13.6503 14.3326C13.9412 14.3294 14.2261 14.2501 14.4768 14.1026C14.7275 13.9551 14.9352 13.7445 15.0793 13.4918C15.2233 13.2391 15.2987 12.9531 15.2979 12.6622C15.297 12.3713 15.2201 12.0858 15.0746 11.8339L15.0747 11.8338L15.0719 11.8293L9.42526 2.40261L9.4243 2.40103C9.27582 2.15624 9.06675 1.95385 8.81727 1.81339C8.56779 1.67293 8.28632 1.59914 8.00001 1.59914C7.71371 1.59914 7.43224 1.67293 7.18276 1.81339C6.93328 1.95385 6.72421 2.15624 6.57572 2.40102Z" stroke="#E54949" stroke-width="0.665" stroke-linecap="round" stroke-linejoin="round"/>
<path d="M6.57572 2.40102L6.57477 2.40261L0.928106 11.8293L0.92807 11.8293L0.925406 11.8339C0.779952 12.0858 0.702989 12.3713 0.702174 12.6622C0.70136 12.9531 0.776722 13.2391 0.920763 13.4918C1.0648 13.7445 1.2725 13.9551 1.5232 14.1026C1.77389 14.2501 2.05884 14.3294 2.34969 14.3326L2.34969 14.3326H2.35335H13.6467V14.3327L13.6503 14.3326C13.9412 14.3294 14.2261 14.2501 14.4768 14.1026C14.7275 13.9551 14.9352 13.7445 15.0793 13.4918C15.2233 13.2391 15.2987 12.9531 15.2979 12.6622C15.297 12.3713 15.2201 12.0858 15.0746 11.8339L15.0747 11.8338L15.0719 11.8293L9.42526 2.40261L9.4243 2.40103C9.27582 2.15624 9.06675 1.95385 8.81727 1.81339C8.56779 1.67293 8.28632 1.59914 8.00001 1.59914C7.71371 1.59914 7.43224 1.67293 7.18276 1.81339C6.93328 1.95385 6.72421 2.15624 6.57572 2.40102Z" stroke="black" stroke-opacity="0.25" stroke-width="0.665" stroke-linecap="round" stroke-linejoin="round"/>
</g>
<path id="Vector_2" d="M8 6V8.66667" stroke="white" stroke-width="1.33333" stroke-linecap="round" stroke-linejoin="round"/>
<path id="Vector_3" d="M8 11.333H8.00667" stroke="white" stroke-width="1.33333" stroke-linecap="round" stroke-linejoin="round"/>
</g>
</svg>
