<svg xmlns="http://www.w3.org/2000/svg" width="33" height="32" viewBox="0 0 33 32" fill="none">
  <path d="M16.5 11.0003C17.0523 11.0003 17.5 11.448 17.5 12.0003V17.3336C17.5 17.8859 17.0523 18.3336 16.5 18.3336C15.9477 18.3336 15.5 17.8859 15.5 17.3336V12.0003C15.5 11.448 15.9477 11.0003 16.5 11.0003Z" fill="#929B9F"/>
  <path d="M16.5 21.667C15.9477 21.667 15.5 22.1147 15.5 22.667C15.5 23.2192 15.9477 23.667 16.5 23.667H16.5133C17.0656 23.667 17.5133 23.2192 17.5133 22.667C17.5133 22.1147 17.0656 21.667 16.5133 21.667H16.5Z" fill="#929B9F"/>
  <path fill-rule="evenodd" clip-rule="evenodd" d="M14.7012 3.33487C15.2503 3.0257 15.8698 2.86328 16.5 2.86328C17.1302 2.86328 17.7498 3.0257 18.2989 3.33487C18.848 3.64403 19.3082 4.08951 19.635 4.62831L19.6379 4.63306L30.9395 23.5001C31.2596 24.0546 31.4289 24.6833 31.4307 25.3235C31.4325 25.9637 31.2666 26.5933 30.9496 27.1495C30.6325 27.7057 30.1754 28.1693 29.6236 28.4939C29.0718 28.8186 28.4446 28.9932 27.8044 29.0002L27.7934 29.0003L5.1957 29.0003C4.5555 28.9932 3.9283 28.8186 3.3765 28.4939C2.8247 28.1693 2.36753 27.7057 2.05049 27.1495C1.73344 26.5933 1.56756 25.9637 1.56935 25.3235C1.57114 24.6833 1.74055 24.0547 2.0607 23.5002L2.06872 23.4863L13.3622 4.63307L13.365 4.62831C13.6919 4.08951 14.152 3.64403 14.7012 3.33487ZM16.5 4.86328C16.2136 4.86328 15.932 4.93711 15.6824 5.07764C15.4335 5.21777 15.2248 5.4195 15.0763 5.66348L15.075 5.66557L3.78915 24.5065C3.64591 24.757 3.57015 25.0405 3.56934 25.3291C3.56853 25.6201 3.64393 25.9063 3.78804 26.1591C3.93215 26.4119 4.13996 26.6226 4.39078 26.7702C4.64019 26.917 4.92349 26.9962 5.21279 27.0003H27.7873C28.0766 26.9962 28.3599 26.917 28.6093 26.7702C28.8601 26.6226 29.0679 26.4119 29.212 26.1591C29.3561 25.9063 29.4315 25.6201 29.4307 25.3291C29.4299 25.0405 29.3541 24.757 29.2109 24.5065L17.925 5.66557L17.9238 5.66348C17.7753 5.4195 17.5666 5.21777 17.3177 5.07764C17.0681 4.93711 16.7865 4.86328 16.5 4.86328Z" fill="#929B9F"/>
</svg>