<svg width="28" height="28" viewBox="0 0 28 28" fill="none" xmlns="http://www.w3.org/2000/svg">
<g id="Icon_Beach">
<path id="Union" fill-rule="evenodd" clip-rule="evenodd" d="M10.8199 3.89726C11.2114 3.79235 11.6138 4.0247 11.7187 4.41621L11.9731 5.36569C14.7445 4.83198 16.9506 5.64719 18.5754 6.9419C20.307 8.3217 21.3651 10.2299 21.8199 11.5826C21.8844 11.7747 21.8667 11.9849 21.771 12.1634C21.6752 12.3419 21.5099 12.473 21.3142 12.5254L15.8611 13.9865L14.3806 14.3832L16.3579 22.1218L21.4325 22.1199C21.8378 22.1197 22.1665 22.4481 22.1667 22.8535C22.1668 23.2588 21.8384 23.5875 21.4331 23.5877L15.8037 23.5898C15.793 23.5901 15.7823 23.5901 15.7717 23.5898L10.3692 23.5919C9.96383 23.5921 9.63513 23.2636 9.63497 22.8583C9.63482 22.453 9.96327 22.1243 10.3686 22.1241L14.843 22.1224L12.9627 14.7632L11.4987 15.1554L6.04563 16.6166C5.84993 16.669 5.64126 16.6382 5.46905 16.5315C5.29684 16.4248 5.17642 16.2516 5.13631 16.053C4.85377 14.6541 4.81602 12.4725 5.62572 10.4118C6.3855 8.4781 7.88839 6.66908 10.5554 5.74559L10.3009 4.7961C10.196 4.40459 10.4284 4.00217 10.8199 3.89726ZM9.93155 7.61327C8.39644 8.43692 7.49824 9.65977 6.99186 10.9485C6.4419 12.3482 6.35214 13.839 6.46182 14.9855L10.2564 13.9687C9.26723 11.6782 9.35934 9.34521 9.93155 7.61327ZM11.6923 13.584L13.3 13.1532L14.9077 12.7224C14.6652 9.98221 13.0355 8.00467 11.702 7.18954C10.9548 8.56219 10.5322 11.0897 11.6923 13.584ZM13.4472 6.67125C14.8087 7.88505 16.055 9.85945 16.3436 12.3377L20.1382 11.3209C19.66 10.2732 18.8368 9.02701 17.6607 8.08983C16.5778 7.22692 15.1885 6.61699 13.4472 6.67125Z" fill="white"/>
</g>
</svg>
