<svg xmlns="http://www.w3.org/2000/svg" width="28" height="28" viewBox="0 0 28 28" fill="none">
  <path fill-rule="evenodd" clip-rule="evenodd" d="M13.9995 4.45947C14.2317 4.45937 14.4544 4.55157 14.6186 4.71575L19.5709 9.66805C19.5708 9.66798 19.571 9.66812 19.5709 9.66805C20.6727 10.7692 21.4233 12.1725 21.7276 13.7001C22.0319 15.2278 21.8762 16.8115 21.2803 18.2508C20.6844 19.6901 19.6751 20.9203 18.3799 21.7858C17.0848 22.6514 15.562 23.1133 14.0043 23.1133C12.4465 23.1133 10.9238 22.6514 9.62862 21.7858C8.33347 20.9203 7.32412 19.6901 6.72823 18.2508C6.13234 16.8115 5.97669 15.2278 6.28097 13.7001C6.58521 12.1726 7.33558 10.7696 8.43719 9.6685C8.43704 9.66865 8.43734 9.66835 8.43719 9.6685L13.3806 4.7163C13.5447 4.55197 13.7673 4.45958 13.9995 4.45947ZM14.0004 6.57246L9.67542 10.9051C8.81842 11.7616 8.23392 12.8537 7.99726 14.0419C7.7606 15.2302 7.88166 16.4619 8.34513 17.5814C8.8086 18.7008 9.59365 19.6576 10.601 20.3308C11.6083 21.004 12.7927 21.3633 14.0043 21.3633C15.2159 21.3633 16.4002 21.004 17.4076 20.3308C18.4149 19.6576 19.2 18.7008 19.6634 17.5814C20.1269 16.4619 20.248 15.2302 20.0113 14.0419C19.7746 12.8537 19.1909 11.7623 18.3339 10.9059L14.0004 6.57246Z"/>
</svg>