<svg width="22" height="22" viewBox="0 0 22 22" fill="none" xmlns="http://www.w3.org/2000/svg">
<path d="M11 12.9999C12.1046 12.9999 13 12.1045 13 10.9999C13 9.89535 12.1046 8.99992 11 8.99992C9.89547 8.99992 9.00004 9.89535 9.00004 10.9999C9.00004 12.1045 9.89547 12.9999 11 12.9999Z" fill="#1764BE"/>
<path fill-rule="evenodd" clip-rule="evenodd" d="M21.6667 10.9999C21.6667 16.891 16.8911 21.6666 11 21.6666C5.109 21.6666 0.333374 16.891 0.333374 10.9999C0.333374 5.10888 5.109 0.333252 11 0.333252C16.8911 0.333252 21.6667 5.10888 21.6667 10.9999ZM16 10.0725H19.6177C19.1899 6.05104 16.0115 2.8512 12 2.39032V6.40584H10V2.39032C5.98854 2.8512 2.81022 6.05104 2.38241 10.0725H6.00004V12.0725H2.39909C2.88703 16.0256 6.03694 19.1542 10 19.6095V14.9999H12V19.6095C15.9631 19.1542 19.1131 16.0256 19.601 12.0725H16V10.0725Z" fill="#1764BE"/>
</svg>
