<svg width="32" height="32" viewBox="0 0 32 32" fill="none" xmlns="http://www.w3.org/2000/svg">
<path d="M16 17.9999C17.1046 17.9999 18 17.1045 18 15.9999C18 14.8953 17.1046 13.9999 16 13.9999C14.8955 13.9999 14 14.8953 14 15.9999C14 17.1045 14.8955 17.9999 16 17.9999Z" fill="#4C5555"/>
<path fill-rule="evenodd" clip-rule="evenodd" d="M26.6667 15.9999C26.6667 21.891 21.8911 26.6666 16 26.6666C10.109 26.6666 5.33337 21.891 5.33337 15.9999C5.33337 10.1089 10.109 5.33325 16 5.33325C21.8911 5.33325 26.6667 10.1089 26.6667 15.9999ZM21 15.0725H24.6177C24.1899 11.051 21.0115 7.8512 17 7.39032V11.4058H15V7.39032C10.9885 7.8512 7.81022 11.051 7.38241 15.0725H11V17.0725H7.39909C7.88703 21.0256 11.0369 24.1542 15 24.6095V19.9999H17V24.6095C20.9631 24.1542 24.1131 21.0256 24.601 17.0725H21V15.0725Z" fill="#4C5555"/>
</svg>
