<svg xmlns="http://www.w3.org/2000/svg" width="28" height="28" viewBox="0 0 28 28" fill="none">
  <path fill-rule="evenodd" clip-rule="evenodd" d="M9.35115 4.12983C9.6473 4.42597 9.6473 4.90612 9.35115 5.20227L7.8133 6.74012L14.3142 13.241H18.1483C18.3494 13.241 18.5423 13.3209 18.6845 13.4632L23.8697 18.6483C24.1658 18.9445 24.1658 19.4246 23.8697 19.7208L19.7215 23.8689C19.4254 24.1651 18.9452 24.1651 18.6491 23.8689L13.4639 18.6838C13.3217 18.5415 13.2418 18.3487 13.2418 18.1475V14.3135L6.74085 7.81257L5.203 9.35042C4.90686 9.64657 4.42671 9.64657 4.13056 9.35042C3.83441 9.05427 3.83441 8.57412 4.13056 8.27797L8.27871 4.12983C8.57485 3.83368 9.055 3.83368 9.35115 4.12983ZM14.7584 15.8302V17.8334L19.1853 22.2603L22.261 19.1846L17.8341 14.7577H15.8309L17.6474 16.5743C17.9436 16.8704 17.9436 17.3506 17.6474 17.6467C17.3513 17.9429 16.8712 17.9429 16.575 17.6467L14.7584 15.8302Z" />
</svg>