<svg width="48" height="48" viewBox="0 0 48 48" fill="none" xmlns="http://www.w3.org/2000/svg">
<ellipse cx="24" cy="43" rx="12" ry="3" fill="#70787B"/>
<path d="M40 18.3636C40 31.0909 24 42 24 42C24 42 8 31.0909 8 18.3636C8 14.0237 9.68571 9.86158 12.6863 6.7928C15.6869 3.72402 19.7565 2 24 2C28.2435 2 32.3131 3.72402 35.3137 6.7928C38.3143 9.86158 40 14.0237 40 18.3636Z" fill="#6498D4"/>
<path d="M40 18.3636C40 31.0909 24 42 24 42C24 42 8 31.0909 8 18.3636C8 14.0237 9.68571 9.86158 12.6863 6.7928C15.6869 3.72402 19.7565 2 24 2C28.2435 2 32.3131 3.72402 35.3137 6.7928C38.3143 9.86158 40 14.0237 40 18.3636Z" stroke="#6498D4" stroke-width="2" stroke-linecap="round" stroke-linejoin="round"/>
<path d="M40 18.3636C40 31.0909 24 42 24 42C24 42 8 31.0909 8 18.3636C8 14.0237 9.68571 9.86158 12.6863 6.7928C15.6869 3.72402 19.7565 2 24 2C28.2435 2 32.3131 3.72402 35.3137 6.7928C38.3143 9.86158 40 14.0237 40 18.3636Z" stroke="black" stroke-opacity="0.5" stroke-width="2" stroke-linecap="round" stroke-linejoin="round"/>
</svg>
