<svg xmlns="http://www.w3.org/2000/svg" width="28" height="28" viewBox="0 0 28 28" fill="none">
  <path fill-rule="evenodd" clip-rule="evenodd" d="M24.4671 5.95C24.4671 5.5634 24.1537 5.25 23.7671 5.25C23.3805 5.25 23.0671 5.5634 23.0671 5.95V16.8993C23.0671 18.7854 21.5381 20.3143 19.6521 20.3143H16.823C16.7827 20.3143 16.7431 20.3177 16.7047 20.3243C16.421 19.5273 15.66 18.9568 14.7657 18.9568H12.7082C11.5719 18.9568 10.6507 19.878 10.6507 21.0143C10.6507 22.1506 11.5719 23.0718 12.7082 23.0718H14.7657C15.66 23.0718 16.421 22.5013 16.7047 21.7044C16.7431 21.7109 16.7827 21.7143 16.823 21.7143H19.6521C22.3113 21.7143 24.4671 19.5586 24.4671 16.8993V5.95ZM14.7657 20.3568H12.7082C12.3451 20.3568 12.0507 20.6512 12.0507 21.0143C12.0507 21.3774 12.3451 21.6718 12.7082 21.6718H14.7657C15.1289 21.6718 15.4232 21.3774 15.4232 21.0143C15.4232 20.6512 15.1289 20.3568 14.7657 20.3568Z" />
  <path fill-rule="evenodd" clip-rule="evenodd" d="M8.74978 6.93105C5.86208 6.91791 3.51048 9.2482 3.49735 12.1359L3.49352 12.9779C3.48249 15.4006 5.43755 17.3735 7.86025 17.3845C8.87167 17.3891 9.82924 16.9809 10.7698 16.58C10.9417 16.5067 11.1131 16.4336 11.2841 16.3634C11.3522 16.3355 11.4218 16.309 11.493 16.2844C12.1676 16.0509 12.8905 16.2559 13.5367 16.5594L14.4445 16.9857C15.0519 17.2709 15.7142 17.4202 16.3852 17.4233C18.9339 17.4349 21.0095 15.3781 21.0211 12.8294L21.0238 12.2156C21.037 9.32794 18.7067 6.97634 15.819 6.96321L8.74978 6.93105ZM15.8126 8.36319L8.74341 8.33103C6.6289 8.32141 4.90695 10.0278 4.89733 12.1423L4.8935 12.9842C4.886 14.6337 6.21711 15.977 7.86662 15.9845C8.5658 15.9877 9.21631 15.7135 10.1587 15.3163C10.3443 15.2381 10.5414 15.155 10.7522 15.0684C10.8435 15.0309 10.9378 14.995 11.0351 14.9614C12.2474 14.5418 13.4032 14.95 14.1318 15.2921L15.0396 15.7184C15.4627 15.9171 15.9241 16.0212 16.3915 16.0233C18.1671 16.0314 19.613 14.5986 19.6211 12.823L19.6239 12.2093C19.6335 10.0948 17.9271 8.37281 15.8126 8.36319Z" />
</svg>