<svg width="24" height="24" viewBox="0 0 24 24" fill="none" xmlns="http://www.w3.org/2000/svg">
<g id="Icon_StarFill">
<g id="Union">
<path fill-rule="evenodd" clip-rule="evenodd" d="M14.781 8.59516L12 3L9.219 8.59516L3 9.4979L7.5 13.8507L6.438 20L12 17.0952L17.562 20L16.5 13.8507L21 9.4979L14.781 8.59516Z" fill="#FFBD19"/>
<path d="M12 3L12.8955 2.55491C12.7265 2.21496 12.3796 2 12 2C11.6204 2 11.2735 2.21496 11.1045 2.55491L12 3ZM14.781 8.59516L13.8855 9.04025C14.0316 9.33414 14.3126 9.53765 14.6373 9.58479L14.781 8.59516ZM9.219 8.59516L9.36265 9.58479C9.68744 9.53765 9.96841 9.33414 10.1145 9.04025L9.219 8.59516ZM3 9.4979L2.85635 8.50827C2.47894 8.56305 2.16555 8.82772 2.04837 9.19064C1.9312 9.55355 2.03064 9.95152 2.30475 10.2167L3 9.4979ZM7.5 13.8507L8.48541 14.0209C8.54173 13.6948 8.43309 13.362 8.19525 13.1319L7.5 13.8507ZM6.438 20L5.45259 19.8298C5.38786 20.2046 5.54136 20.5837 5.84865 20.8079C6.15593 21.032 6.56378 21.0625 6.90093 20.8864L6.438 20ZM12 17.0952L12.4629 16.2088C12.1729 16.0573 11.8271 16.0573 11.5371 16.2088L12 17.0952ZM17.562 20L17.0991 20.8864C17.4362 21.0625 17.8441 21.032 18.1514 20.8079C18.4586 20.5837 18.6121 20.2046 18.5474 19.8298L17.562 20ZM16.5 13.8507L15.8047 13.1319C15.5669 13.362 15.4583 13.6948 15.5146 14.0209L16.5 13.8507ZM21 9.4979L21.6953 10.2167C21.9694 9.95152 22.0688 9.55355 21.9516 9.19064C21.8344 8.82772 21.5211 8.56305 21.1437 8.50827L21 9.4979ZM11.1045 3.44509L13.8855 9.04025L15.6765 8.15007L12.8955 2.55491L11.1045 3.44509ZM10.1145 9.04025L12.8955 3.44509L11.1045 2.55491L8.32351 8.15007L10.1145 9.04025ZM3.14365 10.4875L9.36265 9.58479L9.07535 7.60553L2.85635 8.50827L3.14365 10.4875ZM8.19525 13.1319L3.69525 8.77913L2.30475 10.2167L6.80475 14.5694L8.19525 13.1319ZM7.42341 20.1702L8.48541 14.0209L6.51459 13.6805L5.45259 19.8298L7.42341 20.1702ZM11.5371 16.2088L5.97507 19.1136L6.90093 20.8864L12.4629 17.9816L11.5371 16.2088ZM18.0249 19.1136L12.4629 16.2088L11.5371 17.9816L17.0991 20.8864L18.0249 19.1136ZM15.5146 14.0209L16.5766 20.1702L18.5474 19.8298L17.4854 13.6805L15.5146 14.0209ZM20.3047 8.77913L15.8047 13.1319L17.1953 14.5694L21.6953 10.2167L20.3047 8.77913ZM14.6373 9.58479L20.8563 10.4875L21.1437 8.50827L14.9247 7.60553L14.6373 9.58479Z" fill="#FFBD19"/>
</g>
</g>
</svg>
