<svg width="24" height="24" viewBox="0 0 24 24" fill="none" xmlns="http://www.w3.org/2000/svg">
<g id="Icon_Star">
<path id="Union" fill-rule="evenodd" clip-rule="evenodd" d="M12.8955 2.55491C12.7265 2.21496 12.3797 2 12 2C11.6204 2 11.2735 2.21496 11.1045 2.55491L8.55678 7.68081L2.85638 8.50827C2.47897 8.56305 2.16558 8.82772 2.0484 9.19064C1.93123 9.55355 2.03067 9.95152 2.30478 10.2167L6.4246 14.2017L5.45262 19.8298C5.38789 20.2046 5.54139 20.5837 5.84868 20.8079C6.15596 21.032 6.56381 21.0625 6.90096 20.8864L12 18.2233L17.0991 20.8864C17.4362 21.0625 17.8441 21.032 18.1514 20.8079C18.4587 20.5837 18.6122 20.2046 18.5474 19.8298L17.5755 14.2017L21.6953 10.2167C21.9694 9.95152 22.0688 9.55355 21.9517 9.19064C21.8345 8.82772 21.5211 8.56305 21.1437 8.50827L15.4433 7.68081L12.8955 2.55491ZM10.1145 9.04025L12 5.24674L13.8855 9.04025C14.0316 9.33414 14.3126 9.53765 14.6374 9.58479L18.841 10.195L15.8048 13.1319C15.5669 13.362 15.4583 13.6948 15.5146 14.0209L16.2325 18.1774L12.463 16.2088C12.1729 16.0573 11.8271 16.0573 11.5371 16.2088L7.76759 18.1774L8.48544 14.0209C8.54176 13.6948 8.43312 13.362 8.19528 13.1319L5.15902 10.195L9.36268 9.58479C9.68746 9.53765 9.96844 9.33414 10.1145 9.04025Z" fill="#FFBD19"/>
</g>
</svg>
