<svg xmlns="http://www.w3.org/2000/svg" width="28" height="28" viewBox="0 0 28 28" fill="none">
  <path fill-rule="evenodd" clip-rule="evenodd" d="M16.4991 6.88561C15.616 6.56111 14.6257 6.58114 14.2278 6.70146C13.4123 6.94837 12.6959 7.29122 12.1786 7.8652C11.6774 8.4214 11.2874 9.27986 11.2874 10.7143C11.2874 12.3373 10.3875 13.3895 9.26248 13.9816C8.17812 14.5523 6.86179 14.72 5.80285 14.6792C5.36825 14.6624 5.02953 14.2965 5.04629 13.8619C5.06305 13.4273 5.42895 13.0886 5.86355 13.1054C6.74906 13.1395 7.76606 12.9893 8.52893 12.5878C9.25117 12.2077 9.71237 11.6334 9.71237 10.7143C9.71237 8.97104 10.1973 7.71109 11.0086 6.81083C11.8038 5.92842 12.8373 5.4768 13.7717 5.19396C14.5405 4.96146 15.8837 4.9815 17.0423 5.40727C18.2385 5.84684 19.454 6.81823 19.454 8.59585C19.454 8.86353 19.3181 9.11289 19.093 9.25786C18.868 9.40283 18.5847 9.42357 18.341 9.3129C17.8342 9.08281 17.174 8.95383 16.7113 9.09666C16.5094 9.15898 16.3443 9.27156 16.2171 9.47501C16.0813 9.69213 15.954 10.0701 15.954 10.7143C15.954 12.4029 16.4694 12.8651 16.8235 13.0374C17.0499 13.1475 17.3282 13.1982 17.6554 13.2098C17.8906 13.2181 18.0953 13.2073 18.312 13.1958C18.4159 13.1903 18.5225 13.1847 18.6365 13.1809C19.3778 13.1481 20.153 12.903 20.7691 12.6455C21.0721 12.5188 21.3245 12.3944 21.4997 12.3024C21.5871 12.2565 21.6546 12.219 21.6991 12.1938C21.7212 12.1812 21.7376 12.1717 21.7477 12.1658L21.7581 12.1596C22.1301 11.9346 22.615 12.0531 22.8402 12.4251C23.0654 12.7972 22.9464 13.2814 22.5744 13.5066L22.1665 12.8329C22.5744 13.5066 22.5745 13.5065 22.5744 13.5066L22.5729 13.5074L22.5709 13.5087L22.5649 13.5123L22.5452 13.5239C22.5288 13.5335 22.5059 13.5469 22.4768 13.5634C22.4187 13.5964 22.3359 13.6422 22.2318 13.6969C22.0242 13.8059 21.7298 13.951 21.3765 14.0986C20.6812 14.3892 19.708 14.7111 18.7005 14.7546L18.692 14.755C18.6323 14.7569 18.5578 14.7608 18.4728 14.7652C18.2319 14.7778 17.9073 14.7947 17.5995 14.7838C17.1611 14.7682 16.6373 14.6983 16.1346 14.4537C15.0303 13.9166 14.379 12.7331 14.379 10.7143C14.379 9.87542 14.5434 9.18093 14.8816 8.64002C15.2284 8.08544 15.7195 7.75448 16.2468 7.59172C16.6457 7.4686 17.0597 7.44213 17.4551 7.47389C17.2188 7.22221 16.8927 7.03025 16.4991 6.88561ZM5.10938 17.1898C5.2807 16.7901 5.74366 16.6049 6.14342 16.7762C7.76014 17.4691 9.35072 17.4691 10.9674 16.7762C12.9803 15.9135 15.0194 15.9135 17.0323 16.7762C18.649 17.4691 20.2396 17.4691 21.8563 16.7762C22.2561 16.6049 22.719 16.7901 22.8904 17.1898C23.0617 17.5896 22.8765 18.0525 22.4767 18.2239C20.4638 19.0865 18.4248 19.0865 16.4119 18.2239C14.7952 17.531 13.2046 17.531 11.5879 18.2239C9.57495 19.0865 7.5359 19.0865 5.52299 18.2239C5.12323 18.0525 4.93805 17.5896 5.10938 17.1898ZM5.10938 21.2731C5.2807 20.8734 5.74366 20.6882 6.14342 20.8595C7.76014 21.5524 9.35072 21.5524 10.9674 20.8595C12.9803 19.9969 15.0194 19.9969 17.0323 20.8595C18.649 21.5524 20.2396 21.5524 21.8563 20.8595C22.2561 20.6882 22.719 20.8734 22.8904 21.2731C23.0617 21.6729 22.8765 22.1359 22.4767 22.3072C20.4638 23.1699 18.4248 23.1699 16.4119 22.3072C14.7952 21.6143 13.2046 21.6143 11.5879 22.3072C9.57495 23.1699 7.5359 23.1699 5.52299 22.3072C5.12323 22.1359 4.93805 21.6729 5.10938 21.2731Z" />
</svg>