<svg xmlns="http://www.w3.org/2000/svg" width="28" height="28" viewBox="0 0 28 28" fill="none">
  <path d="M14 3.7915C14.4833 3.7915 14.875 4.18325 14.875 4.6665V6.36347C14.875 6.84672 14.4833 7.23847 14 7.23847C13.5168 7.23847 13.125 6.84672 13.125 6.36347V4.6665C13.125 4.18325 13.5168 3.7915 14 3.7915Z"/>
  <path fill-rule="evenodd" clip-rule="evenodd" d="M8.88274 13.9997C8.88274 11.1734 11.1739 8.88228 14.0002 8.88228C16.8264 8.88228 19.1176 11.1734 19.1176 13.9997C19.1176 16.826 16.8264 19.1171 14.0002 19.1171C11.1739 19.1171 8.88274 16.826 8.88274 13.9997ZM14.0002 10.6323C12.1404 10.6323 10.6327 12.1399 10.6327 13.9997C10.6327 15.8595 12.1404 17.3671 14.0002 17.3671C15.8599 17.3671 17.3676 15.8595 17.3676 13.9997C17.3676 12.1399 15.8599 10.6323 14.0002 10.6323Z"/>
  <path d="M14.875 21.6362C14.875 21.1529 14.4833 20.7612 14 20.7612C13.5168 20.7612 13.125 21.1529 13.125 21.6362V23.3331C13.125 23.8164 13.5168 24.2081 14 24.2081C14.4833 24.2081 14.875 23.8164 14.875 23.3331V21.6362Z"/>
  <path d="M6.78005 6.7796C7.12176 6.43789 7.67578 6.43789 8.01749 6.7796L9.22234 7.98445C9.56404 8.32615 9.56404 8.88017 9.22234 9.22188C8.88063 9.56359 8.32661 9.56359 7.9849 9.22188L6.78005 8.01703C6.43834 7.67533 6.43834 7.12131 6.78005 6.7796Z" />
  <path d="M20.0151 18.7775C19.6734 18.4358 19.1194 18.4358 18.7777 18.7775C18.436 19.1192 18.436 19.6733 18.7777 20.015L19.9825 21.2198C20.3242 21.5615 20.8783 21.5615 21.22 21.2198C21.5617 20.8781 21.5617 20.3241 21.22 19.9824L20.0151 18.7775Z" />
  <path d="M3.79167 13.9998C3.79167 13.5166 4.18342 13.1248 4.66667 13.1248H6.36364C6.84689 13.1248 7.23864 13.5166 7.23864 13.9998C7.23864 14.4831 6.84689 14.8748 6.36364 14.8748H4.66667C4.18342 14.8748 3.79167 14.4831 3.79167 13.9998Z" />
  <path d="M21.6363 13.1248C21.1531 13.1248 20.7613 13.5166 20.7613 13.9998C20.7613 14.4831 21.1531 14.8748 21.6363 14.8748H23.3333C23.8165 14.8748 24.2083 14.4831 24.2083 13.9998C24.2083 13.5166 23.8165 13.1248 23.3333 13.1248H21.6363Z"/>
  <path d="M9.22234 18.7775C9.56404 19.1192 9.56404 19.6733 9.22234 20.015L8.01749 21.2198C7.67578 21.5615 7.12176 21.5615 6.78005 21.2198C6.43834 20.8781 6.43834 20.3241 6.78005 19.9824L7.9849 18.7775C8.32661 18.4358 8.88063 18.4358 9.22234 18.7775Z" />
  <path d="M21.22 8.01703C21.5617 7.67533 21.5617 7.12131 21.22 6.7796C20.8783 6.43789 20.3242 6.43789 19.9825 6.7796L18.7777 7.98445C18.436 8.32615 18.436 8.88017 18.7777 9.22188C19.1194 9.56359 19.6734 9.56359 20.0151 9.22188L21.22 8.01703Z" />
</svg>