<svg width="28" height="28" viewBox="0 0 28 28" fill="none" xmlns="http://www.w3.org/2000/svg">
<path fill-rule="evenodd" clip-rule="evenodd" d="M3.5 6.99992C3.5 6.35559 4.02233 5.83325 4.66667 5.83325H23.3333C23.9777 5.83325 24.5 6.35559 24.5 6.99992C24.5 7.64425 23.9777 8.16659 23.3333 8.16659H4.66667C4.02233 8.16659 3.5 7.64425 3.5 6.99992ZM3.5 13.9999C3.5 13.3556 4.02233 12.8333 4.66667 12.8333H23.3333C23.9777 12.8333 24.5 13.3556 24.5 13.9999C24.5 14.6443 23.9777 15.1666 23.3333 15.1666H4.66667C4.02233 15.1666 3.5 14.6443 3.5 13.9999ZM4.66667 19.8333C4.02233 19.8333 3.5 20.3556 3.5 20.9999C3.5 21.6443 4.02233 22.1666 4.66667 22.1666H23.3333C23.9777 22.1666 24.5 21.6443 24.5 20.9999C24.5 20.3556 23.9777 19.8333 23.3333 19.8333H4.66667Z" fill="#4C5555"/>
</svg>
